<?xml version="1.0" standalone="no"?>
<!DOCTYPE svg PUBLIC "-//W3C//DTD SVG 20010904//EN"
 "http://www.w3.org/TR/2001/REC-SVG-20010904/DTD/svg10.dtd">
<svg version="1.0" xmlns="http://www.w3.org/2000/svg"
 width="200.000000pt" height="200.000000pt" viewBox="0 0 200.000000 200.000000"
 preserveAspectRatio="xMidYMid meet">
<metadata>
Created by potrace 1.14, written by Peter Selinger 2001-2017
</metadata>
<g transform="translate(0.000000,200.000000) scale(0.100000,-0.100000)"
fill="#000000" stroke="none">
<path d="M929 1996 c-2 -2 -31 -6 -64 -9 -241 -24 -520 -191 -669 -400 -132
-186 -191 -366 -189 -587 1 -211 56 -394 168 -556 259 -377 725 -532 1151
-383 414 144 684 537 668 974 -7 199 -67 378 -182 540 -178 251 -465 406 -774
420 -58 2 -107 3 -109 1z"/>
</g>
</svg>
